<mxfile host="Electron" agent="Mozilla/5.0 (Windows NT 10.0; Win64; x64) AppleWebKit/537.36 (KHTML, like Gecko) draw.io/24.7.17 Chrome/128.0.6613.36 Electron/32.0.1 Safari/537.36" version="24.7.17">
  <diagram id="C5RBs43oDa-KdzZeNtuy" name="Page-1">
    <mxGraphModel dx="1120" dy="572" grid="1" gridSize="10" guides="1" tooltips="1" connect="1" arrows="1" fold="1" page="1" pageScale="1" pageWidth="1500" pageHeight="2169" math="0" shadow="0">
      <root>
        <mxCell id="WIyWlLk6GJQsqaUBKTNV-0" />
        <mxCell id="WIyWlLk6GJQsqaUBKTNV-1" parent="WIyWlLk6GJQsqaUBKTNV-0" />
        <mxCell id="WIyWlLk6GJQsqaUBKTNV-2" value="" style="rounded=0;html=1;jettySize=auto;orthogonalLoop=1;fontSize=11;endArrow=block;endFill=0;endSize=8;strokeWidth=1;shadow=0;labelBackgroundColor=none;edgeStyle=orthogonalEdgeStyle;" parent="WIyWlLk6GJQsqaUBKTNV-1" source="WIyWlLk6GJQsqaUBKTNV-3" target="RDPWRDaJUM-HjUEI_1-9-1" edge="1">
          <mxGeometry relative="1" as="geometry" />
        </mxCell>
        <mxCell id="WIyWlLk6GJQsqaUBKTNV-3" value="Play" style="rounded=1;whiteSpace=wrap;html=1;fontSize=12;glass=0;strokeWidth=1;shadow=0;" parent="WIyWlLk6GJQsqaUBKTNV-1" vertex="1">
          <mxGeometry x="160" y="80" width="120" height="40" as="geometry" />
        </mxCell>
        <mxCell id="RDPWRDaJUM-HjUEI_1-9-30" style="edgeStyle=orthogonalEdgeStyle;rounded=0;orthogonalLoop=1;jettySize=auto;html=1;exitX=0.5;exitY=1;exitDx=0;exitDy=0;entryX=0.5;entryY=0;entryDx=0;entryDy=0;" edge="1" parent="WIyWlLk6GJQsqaUBKTNV-1" source="RDPWRDaJUM-HjUEI_1-9-1" target="RDPWRDaJUM-HjUEI_1-9-28">
          <mxGeometry relative="1" as="geometry" />
        </mxCell>
        <mxCell id="RDPWRDaJUM-HjUEI_1-9-1" value="1.LOGIN&lt;div&gt;2.REGISTARASI&lt;/div&gt;&lt;div&gt;3.KELUAR PROGRAM&lt;/div&gt;" style="shape=parallelogram;perimeter=parallelogramPerimeter;whiteSpace=wrap;html=1;fixedSize=1;size=10;" vertex="1" parent="WIyWlLk6GJQsqaUBKTNV-1">
          <mxGeometry x="150" y="170" width="140" height="50" as="geometry" />
        </mxCell>
        <mxCell id="RDPWRDaJUM-HjUEI_1-9-47" style="edgeStyle=orthogonalEdgeStyle;rounded=0;orthogonalLoop=1;jettySize=auto;html=1;exitX=0.25;exitY=1;exitDx=0;exitDy=0;entryX=0.5;entryY=0;entryDx=0;entryDy=0;" edge="1" parent="WIyWlLk6GJQsqaUBKTNV-1" source="RDPWRDaJUM-HjUEI_1-9-9" target="RDPWRDaJUM-HjUEI_1-9-32">
          <mxGeometry relative="1" as="geometry">
            <Array as="points">
              <mxPoint x="380" y="325" />
            </Array>
          </mxGeometry>
        </mxCell>
        <mxCell id="RDPWRDaJUM-HjUEI_1-9-9" value="1.Tambah voucher game&lt;div&gt;2.Hapus voucher game&lt;/div&gt;&lt;div&gt;3.List voucher game&lt;/div&gt;&lt;div&gt;4.Ganti akun&lt;/div&gt;" style="shape=parallelogram;perimeter=parallelogramPerimeter;whiteSpace=wrap;html=1;fixedSize=1;" vertex="1" parent="WIyWlLk6GJQsqaUBKTNV-1">
          <mxGeometry x="300" y="255" width="170" height="70" as="geometry" />
        </mxCell>
        <mxCell id="RDPWRDaJUM-HjUEI_1-9-85" style="edgeStyle=orthogonalEdgeStyle;rounded=0;orthogonalLoop=1;jettySize=auto;html=1;exitX=1;exitY=0.5;exitDx=0;exitDy=0;entryX=1;entryY=0.5;entryDx=0;entryDy=0;" edge="1" parent="WIyWlLk6GJQsqaUBKTNV-1" source="RDPWRDaJUM-HjUEI_1-9-13" target="RDPWRDaJUM-HjUEI_1-9-1">
          <mxGeometry relative="1" as="geometry">
            <Array as="points">
              <mxPoint x="740" y="630" />
              <mxPoint x="740" y="195" />
            </Array>
          </mxGeometry>
        </mxCell>
        <mxCell id="RDPWRDaJUM-HjUEI_1-9-13" value="masukkan voucher baru&lt;div&gt;masukkan harga baru&lt;/div&gt;" style="shape=parallelogram;perimeter=parallelogramPerimeter;whiteSpace=wrap;html=1;fixedSize=1;" vertex="1" parent="WIyWlLk6GJQsqaUBKTNV-1">
          <mxGeometry x="460" y="600" width="160" height="60" as="geometry" />
        </mxCell>
        <mxCell id="RDPWRDaJUM-HjUEI_1-9-83" style="edgeStyle=orthogonalEdgeStyle;rounded=0;orthogonalLoop=1;jettySize=auto;html=1;exitX=1;exitY=0.25;exitDx=0;exitDy=0;entryX=1;entryY=0.5;entryDx=0;entryDy=0;" edge="1" parent="WIyWlLk6GJQsqaUBKTNV-1" source="RDPWRDaJUM-HjUEI_1-9-16" target="RDPWRDaJUM-HjUEI_1-9-1">
          <mxGeometry relative="1" as="geometry">
            <Array as="points">
              <mxPoint x="740" y="379" />
              <mxPoint x="740" y="195" />
            </Array>
          </mxGeometry>
        </mxCell>
        <mxCell id="RDPWRDaJUM-HjUEI_1-9-16" value="masukkan pilihan voucher game yang mau di hapus dari list voucher game" style="shape=parallelogram;perimeter=parallelogramPerimeter;whiteSpace=wrap;html=1;fixedSize=1;" vertex="1" parent="WIyWlLk6GJQsqaUBKTNV-1">
          <mxGeometry x="510" y="355" width="127.5" height="90" as="geometry" />
        </mxCell>
        <mxCell id="RDPWRDaJUM-HjUEI_1-9-84" style="edgeStyle=orthogonalEdgeStyle;rounded=0;orthogonalLoop=1;jettySize=auto;html=1;exitX=1;exitY=0.5;exitDx=0;exitDy=0;entryX=1;entryY=0.5;entryDx=0;entryDy=0;" edge="1" parent="WIyWlLk6GJQsqaUBKTNV-1" source="RDPWRDaJUM-HjUEI_1-9-19" target="RDPWRDaJUM-HjUEI_1-9-1">
          <mxGeometry relative="1" as="geometry">
            <Array as="points">
              <mxPoint x="740" y="510" />
              <mxPoint x="740" y="195" />
            </Array>
          </mxGeometry>
        </mxCell>
        <mxCell id="RDPWRDaJUM-HjUEI_1-9-19" value="menampilkan voucher game dan menampilkan voucher game yang di tambah" style="shape=parallelogram;perimeter=parallelogramPerimeter;whiteSpace=wrap;html=1;fixedSize=1;" vertex="1" parent="WIyWlLk6GJQsqaUBKTNV-1">
          <mxGeometry x="480" y="465" width="150" height="90" as="geometry" />
        </mxCell>
        <mxCell id="RDPWRDaJUM-HjUEI_1-9-31" style="edgeStyle=orthogonalEdgeStyle;rounded=0;orthogonalLoop=1;jettySize=auto;html=1;exitX=1;exitY=0.5;exitDx=0;exitDy=0;entryX=0;entryY=0.5;entryDx=0;entryDy=0;" edge="1" parent="WIyWlLk6GJQsqaUBKTNV-1" source="RDPWRDaJUM-HjUEI_1-9-28" target="RDPWRDaJUM-HjUEI_1-9-9">
          <mxGeometry relative="1" as="geometry">
            <Array as="points">
              <mxPoint x="300" y="290" />
            </Array>
          </mxGeometry>
        </mxCell>
        <mxCell id="RDPWRDaJUM-HjUEI_1-9-60" value="TRUE" style="edgeLabel;html=1;align=center;verticalAlign=middle;resizable=0;points=[];" vertex="1" connectable="0" parent="RDPWRDaJUM-HjUEI_1-9-31">
          <mxGeometry x="-0.1533" y="-1" relative="1" as="geometry">
            <mxPoint as="offset" />
          </mxGeometry>
        </mxCell>
        <mxCell id="RDPWRDaJUM-HjUEI_1-9-58" style="edgeStyle=orthogonalEdgeStyle;rounded=0;orthogonalLoop=1;jettySize=auto;html=1;exitX=0.5;exitY=1;exitDx=0;exitDy=0;entryX=0.5;entryY=0;entryDx=0;entryDy=0;" edge="1" parent="WIyWlLk6GJQsqaUBKTNV-1" source="RDPWRDaJUM-HjUEI_1-9-28" target="RDPWRDaJUM-HjUEI_1-9-51">
          <mxGeometry relative="1" as="geometry" />
        </mxCell>
        <mxCell id="RDPWRDaJUM-HjUEI_1-9-59" value="FALSE" style="edgeLabel;html=1;align=center;verticalAlign=middle;resizable=0;points=[];" vertex="1" connectable="0" parent="RDPWRDaJUM-HjUEI_1-9-58">
          <mxGeometry x="-0.3667" relative="1" as="geometry">
            <mxPoint as="offset" />
          </mxGeometry>
        </mxCell>
        <mxCell id="RDPWRDaJUM-HjUEI_1-9-28" value="1.Login" style="rhombus;whiteSpace=wrap;html=1;" vertex="1" parent="WIyWlLk6GJQsqaUBKTNV-1">
          <mxGeometry x="180" y="250" width="80" height="80" as="geometry" />
        </mxCell>
        <mxCell id="RDPWRDaJUM-HjUEI_1-9-72" style="edgeStyle=orthogonalEdgeStyle;rounded=0;orthogonalLoop=1;jettySize=auto;html=1;exitX=0.5;exitY=1;exitDx=0;exitDy=0;entryX=0.5;entryY=0;entryDx=0;entryDy=0;" edge="1" parent="WIyWlLk6GJQsqaUBKTNV-1" source="RDPWRDaJUM-HjUEI_1-9-32" target="RDPWRDaJUM-HjUEI_1-9-38">
          <mxGeometry relative="1" as="geometry" />
        </mxCell>
        <mxCell id="RDPWRDaJUM-HjUEI_1-9-87" value="FALSE" style="edgeLabel;html=1;align=center;verticalAlign=middle;resizable=0;points=[];" vertex="1" connectable="0" parent="RDPWRDaJUM-HjUEI_1-9-72">
          <mxGeometry x="-0.1868" relative="1" as="geometry">
            <mxPoint as="offset" />
          </mxGeometry>
        </mxCell>
        <mxCell id="RDPWRDaJUM-HjUEI_1-9-32" value="1.Tambah voucher game" style="rhombus;whiteSpace=wrap;html=1;" vertex="1" parent="WIyWlLk6GJQsqaUBKTNV-1">
          <mxGeometry x="340" y="355" width="80" height="80" as="geometry" />
        </mxCell>
        <mxCell id="RDPWRDaJUM-HjUEI_1-9-73" style="edgeStyle=orthogonalEdgeStyle;rounded=0;orthogonalLoop=1;jettySize=auto;html=1;exitX=0.5;exitY=1;exitDx=0;exitDy=0;entryX=0.5;entryY=0;entryDx=0;entryDy=0;" edge="1" parent="WIyWlLk6GJQsqaUBKTNV-1" source="RDPWRDaJUM-HjUEI_1-9-38" target="RDPWRDaJUM-HjUEI_1-9-41">
          <mxGeometry relative="1" as="geometry" />
        </mxCell>
        <mxCell id="RDPWRDaJUM-HjUEI_1-9-89" value="FALSE" style="edgeLabel;html=1;align=center;verticalAlign=middle;resizable=0;points=[];" vertex="1" connectable="0" parent="RDPWRDaJUM-HjUEI_1-9-73">
          <mxGeometry x="-0.1312" y="3" relative="1" as="geometry">
            <mxPoint as="offset" />
          </mxGeometry>
        </mxCell>
        <mxCell id="RDPWRDaJUM-HjUEI_1-9-77" style="edgeStyle=orthogonalEdgeStyle;rounded=0;orthogonalLoop=1;jettySize=auto;html=1;exitX=1;exitY=0.5;exitDx=0;exitDy=0;entryX=0;entryY=0.5;entryDx=0;entryDy=0;" edge="1" parent="WIyWlLk6GJQsqaUBKTNV-1" source="RDPWRDaJUM-HjUEI_1-9-38" target="RDPWRDaJUM-HjUEI_1-9-19">
          <mxGeometry relative="1" as="geometry" />
        </mxCell>
        <mxCell id="RDPWRDaJUM-HjUEI_1-9-88" value="TRUE" style="edgeLabel;html=1;align=center;verticalAlign=middle;resizable=0;points=[];" vertex="1" connectable="0" parent="RDPWRDaJUM-HjUEI_1-9-77">
          <mxGeometry x="-0.2879" y="3" relative="1" as="geometry">
            <mxPoint as="offset" />
          </mxGeometry>
        </mxCell>
        <mxCell id="RDPWRDaJUM-HjUEI_1-9-38" value="2.Hapus voucher game" style="rhombus;whiteSpace=wrap;html=1;" vertex="1" parent="WIyWlLk6GJQsqaUBKTNV-1">
          <mxGeometry x="340" y="470" width="80" height="80" as="geometry" />
        </mxCell>
        <mxCell id="RDPWRDaJUM-HjUEI_1-9-74" style="edgeStyle=orthogonalEdgeStyle;rounded=0;orthogonalLoop=1;jettySize=auto;html=1;exitX=0.5;exitY=1;exitDx=0;exitDy=0;entryX=0.5;entryY=0;entryDx=0;entryDy=0;" edge="1" parent="WIyWlLk6GJQsqaUBKTNV-1" source="RDPWRDaJUM-HjUEI_1-9-41" target="RDPWRDaJUM-HjUEI_1-9-49">
          <mxGeometry relative="1" as="geometry" />
        </mxCell>
        <mxCell id="RDPWRDaJUM-HjUEI_1-9-91" value="FALSE" style="edgeLabel;html=1;align=center;verticalAlign=middle;resizable=0;points=[];" vertex="1" connectable="0" parent="RDPWRDaJUM-HjUEI_1-9-74">
          <mxGeometry x="-0.3032" y="-1" relative="1" as="geometry">
            <mxPoint as="offset" />
          </mxGeometry>
        </mxCell>
        <mxCell id="RDPWRDaJUM-HjUEI_1-9-76" style="edgeStyle=orthogonalEdgeStyle;rounded=0;orthogonalLoop=1;jettySize=auto;html=1;exitX=1;exitY=0.5;exitDx=0;exitDy=0;entryX=0;entryY=0.5;entryDx=0;entryDy=0;" edge="1" parent="WIyWlLk6GJQsqaUBKTNV-1" source="RDPWRDaJUM-HjUEI_1-9-41" target="RDPWRDaJUM-HjUEI_1-9-13">
          <mxGeometry relative="1" as="geometry" />
        </mxCell>
        <mxCell id="RDPWRDaJUM-HjUEI_1-9-90" value="TRUE" style="edgeLabel;html=1;align=center;verticalAlign=middle;resizable=0;points=[];" vertex="1" connectable="0" parent="RDPWRDaJUM-HjUEI_1-9-76">
          <mxGeometry x="0.0277" y="-4" relative="1" as="geometry">
            <mxPoint x="-6" y="-4" as="offset" />
          </mxGeometry>
        </mxCell>
        <mxCell id="RDPWRDaJUM-HjUEI_1-9-41" value="3.List voucher game" style="rhombus;whiteSpace=wrap;html=1;" vertex="1" parent="WIyWlLk6GJQsqaUBKTNV-1">
          <mxGeometry x="340" y="592.5" width="80" height="75" as="geometry" />
        </mxCell>
        <mxCell id="RDPWRDaJUM-HjUEI_1-9-82" style="edgeStyle=orthogonalEdgeStyle;rounded=0;orthogonalLoop=1;jettySize=auto;html=1;exitX=1;exitY=0.5;exitDx=0;exitDy=0;entryX=1;entryY=0.5;entryDx=0;entryDy=0;" edge="1" parent="WIyWlLk6GJQsqaUBKTNV-1" source="RDPWRDaJUM-HjUEI_1-9-49" target="RDPWRDaJUM-HjUEI_1-9-1">
          <mxGeometry relative="1" as="geometry">
            <Array as="points">
              <mxPoint x="740" y="750" />
              <mxPoint x="740" y="195" />
            </Array>
          </mxGeometry>
        </mxCell>
        <mxCell id="RDPWRDaJUM-HjUEI_1-9-92" value="TURE" style="edgeLabel;html=1;align=center;verticalAlign=middle;resizable=0;points=[];" vertex="1" connectable="0" parent="RDPWRDaJUM-HjUEI_1-9-82">
          <mxGeometry x="-0.9394" y="-4" relative="1" as="geometry">
            <mxPoint y="-4" as="offset" />
          </mxGeometry>
        </mxCell>
        <mxCell id="RDPWRDaJUM-HjUEI_1-9-49" value="4.Ganti akun" style="rhombus;whiteSpace=wrap;html=1;" vertex="1" parent="WIyWlLk6GJQsqaUBKTNV-1">
          <mxGeometry x="340" y="710" width="80" height="80" as="geometry" />
        </mxCell>
        <mxCell id="RDPWRDaJUM-HjUEI_1-9-50" value="End" style="rounded=1;whiteSpace=wrap;html=1;" vertex="1" parent="WIyWlLk6GJQsqaUBKTNV-1">
          <mxGeometry x="160" y="1020" width="120" height="60" as="geometry" />
        </mxCell>
        <mxCell id="RDPWRDaJUM-HjUEI_1-9-54" style="edgeStyle=orthogonalEdgeStyle;rounded=0;orthogonalLoop=1;jettySize=auto;html=1;exitX=0;exitY=0.5;exitDx=0;exitDy=0;entryX=1;entryY=0.5;entryDx=0;entryDy=0;" edge="1" parent="WIyWlLk6GJQsqaUBKTNV-1" source="RDPWRDaJUM-HjUEI_1-9-51" target="RDPWRDaJUM-HjUEI_1-9-53">
          <mxGeometry relative="1" as="geometry" />
        </mxCell>
        <mxCell id="RDPWRDaJUM-HjUEI_1-9-62" value="TRUE" style="edgeLabel;html=1;align=center;verticalAlign=middle;resizable=0;points=[];" vertex="1" connectable="0" parent="RDPWRDaJUM-HjUEI_1-9-54">
          <mxGeometry x="-0.3" relative="1" as="geometry">
            <mxPoint x="-9" as="offset" />
          </mxGeometry>
        </mxCell>
        <mxCell id="RDPWRDaJUM-HjUEI_1-9-56" style="edgeStyle=orthogonalEdgeStyle;rounded=0;orthogonalLoop=1;jettySize=auto;html=1;exitX=0.5;exitY=1;exitDx=0;exitDy=0;entryX=0.5;entryY=0;entryDx=0;entryDy=0;" edge="1" parent="WIyWlLk6GJQsqaUBKTNV-1" source="RDPWRDaJUM-HjUEI_1-9-51" target="RDPWRDaJUM-HjUEI_1-9-55">
          <mxGeometry relative="1" as="geometry" />
        </mxCell>
        <mxCell id="RDPWRDaJUM-HjUEI_1-9-61" value="FALSE" style="edgeLabel;html=1;align=center;verticalAlign=middle;resizable=0;points=[];" vertex="1" connectable="0" parent="RDPWRDaJUM-HjUEI_1-9-56">
          <mxGeometry x="-0.5333" y="-1" relative="1" as="geometry">
            <mxPoint x="1" y="11" as="offset" />
          </mxGeometry>
        </mxCell>
        <mxCell id="RDPWRDaJUM-HjUEI_1-9-51" value="2.REGISTARASI" style="rhombus;whiteSpace=wrap;html=1;" vertex="1" parent="WIyWlLk6GJQsqaUBKTNV-1">
          <mxGeometry x="180" y="360" width="80" height="80" as="geometry" />
        </mxCell>
        <mxCell id="RDPWRDaJUM-HjUEI_1-9-68" style="edgeStyle=orthogonalEdgeStyle;rounded=0;orthogonalLoop=1;jettySize=auto;html=1;exitX=0.5;exitY=0;exitDx=0;exitDy=0;entryX=0;entryY=0.5;entryDx=0;entryDy=0;" edge="1" parent="WIyWlLk6GJQsqaUBKTNV-1" source="RDPWRDaJUM-HjUEI_1-9-53" target="RDPWRDaJUM-HjUEI_1-9-1">
          <mxGeometry relative="1" as="geometry">
            <Array as="points">
              <mxPoint x="60" y="195" />
            </Array>
          </mxGeometry>
        </mxCell>
        <mxCell id="RDPWRDaJUM-HjUEI_1-9-53" value="masukkan akun baru" style="shape=parallelogram;perimeter=parallelogramPerimeter;whiteSpace=wrap;html=1;fixedSize=1;" vertex="1" parent="WIyWlLk6GJQsqaUBKTNV-1">
          <mxGeometry y="370" width="120" height="60" as="geometry" />
        </mxCell>
        <mxCell id="RDPWRDaJUM-HjUEI_1-9-71" style="edgeStyle=orthogonalEdgeStyle;rounded=0;orthogonalLoop=1;jettySize=auto;html=1;exitX=0.5;exitY=1;exitDx=0;exitDy=0;" edge="1" parent="WIyWlLk6GJQsqaUBKTNV-1" source="RDPWRDaJUM-HjUEI_1-9-55" target="RDPWRDaJUM-HjUEI_1-9-50">
          <mxGeometry relative="1" as="geometry" />
        </mxCell>
        <mxCell id="RDPWRDaJUM-HjUEI_1-9-55" value="3.KELUAR PROGRAM" style="rhombus;whiteSpace=wrap;html=1;" vertex="1" parent="WIyWlLk6GJQsqaUBKTNV-1">
          <mxGeometry x="180" y="470" width="80" height="80" as="geometry" />
        </mxCell>
        <mxCell id="RDPWRDaJUM-HjUEI_1-9-78" style="edgeStyle=orthogonalEdgeStyle;rounded=0;orthogonalLoop=1;jettySize=auto;html=1;exitX=1;exitY=0.5;exitDx=0;exitDy=0;entryX=0.081;entryY=0.431;entryDx=0;entryDy=0;entryPerimeter=0;" edge="1" parent="WIyWlLk6GJQsqaUBKTNV-1" source="RDPWRDaJUM-HjUEI_1-9-32" target="RDPWRDaJUM-HjUEI_1-9-16">
          <mxGeometry relative="1" as="geometry" />
        </mxCell>
        <mxCell id="RDPWRDaJUM-HjUEI_1-9-86" value="TRUE" style="edgeLabel;html=1;align=center;verticalAlign=middle;resizable=0;points=[];" vertex="1" connectable="0" parent="RDPWRDaJUM-HjUEI_1-9-78">
          <mxGeometry x="-0.076" y="2" relative="1" as="geometry">
            <mxPoint as="offset" />
          </mxGeometry>
        </mxCell>
      </root>
    </mxGraphModel>
  </diagram>
</mxfile>
